# Blender v2.80 (sub 75) OBJ File: 'inner_cube.blend'
# www.blender.org
mtllib inner_cube.mtl
o Cube_Cube.001
v -1.000000 -1.000000 1.000000
v -1.000000 1.000000 1.000000
v -1.000000 -1.000000 -1.000000
v -1.000000 1.000000 -1.000000
v 1.000000 -1.000000 1.000000
v 1.000000 1.000000 1.000000
v 1.000000 -1.000000 -1.000000
v 1.000000 1.000000 -1.000000
v -1.000000 -0.835463 0.835463
v -1.000000 0.835463 0.835463
v -1.000000 0.835463 -0.835463
v -1.000000 -0.835463 -0.835463
v -0.835463 -0.835463 -1.000000
v -0.835463 0.835463 -1.000000
v 0.835463 0.835463 -1.000000
v 0.835463 -0.835463 -1.000000
v 1.000000 -0.835463 -0.835463
v 1.000000 0.835463 -0.835463
v 1.000000 0.835463 0.835463
v 1.000000 -0.835463 0.835463
v 0.835463 -0.835463 1.000000
v 0.835463 0.835463 1.000000
v -0.835463 0.835463 1.000000
v -0.835463 -0.835463 1.000000
v -0.835463 -1.000000 -0.835463
v 0.835463 -1.000000 -0.835463
v 0.835463 -1.000000 0.835463
v -0.835463 -1.000000 0.835463
v 0.835463 1.000000 -0.835463
v -0.835463 1.000000 -0.835463
v -0.835463 1.000000 0.835463
v 0.835463 1.000000 0.835463
v -0.462942 -0.386771 0.386771
v -0.462942 0.386771 0.386771
v -0.462942 -0.386771 -0.386771
v -0.462942 0.386771 -0.386771
v -0.386771 0.386771 -0.462942
v -0.386771 -0.386771 -0.462942
v 0.386771 -0.386771 -0.462942
v 0.386771 0.386771 -0.462942
v 0.462942 0.386771 -0.386771
v 0.462942 -0.386771 -0.386771
v 0.462942 -0.386771 0.386771
v 0.462942 0.386771 0.386771
v 0.386771 0.386771 0.462942
v 0.386771 -0.386771 0.462942
v -0.386771 -0.386771 0.462942
v -0.386771 0.386771 0.462942
v 0.386771 -0.462942 -0.386771
v -0.386771 -0.462942 -0.386771
v -0.386771 -0.462942 0.386771
v 0.386771 -0.462942 0.386771
v -0.386771 0.462942 -0.386771
v 0.386771 0.462942 -0.386771
v 0.386771 0.462942 0.386771
v -0.386771 0.462942 0.386771
vt 0.604433 0.270567
vt 0.604433 0.479433
vt 0.604433 0.479433
vt 0.604433 0.270567
vt 0.145567 0.520567
vt 0.354433 0.520567
vt 0.354433 0.520567
vt 0.145567 0.520567
vt 0.395567 0.729433
vt 0.395567 0.520567
vt 0.395567 0.520567
vt 0.395567 0.729433
vt 0.604433 0.020567
vt 0.604433 0.229433
vt 0.604433 0.229433
vt 0.604433 0.020567
vt 0.395567 0.770567
vt 0.604433 0.770567
vt 0.604433 0.770567
vt 0.395567 0.770567
vt 0.395567 0.479433
vt 0.395567 0.270567
vt 0.395567 0.270567
vt 0.395567 0.479433
vt 0.375000 0.000000
vt 0.625000 0.000000
vt 0.395567 0.020567
vt 0.625000 0.250000
vt 0.375000 0.250000
vt 0.395567 0.229433
vt 0.625000 0.500000
vt 0.375000 0.500000
vt 0.604433 0.520567
vt 0.625000 0.750000
vt 0.604433 0.729433
vt 0.375000 0.750000
vt 0.625000 1.000000
vt 0.604433 0.979433
vt 0.375000 1.000000
vt 0.395567 0.979433
vt 0.125000 0.500000
vt 0.354433 0.729433
vt 0.125000 0.750000
vt 0.145567 0.729433
vt 0.875000 0.500000
vt 0.854433 0.520567
vt 0.645567 0.520567
vt 0.875000 0.750000
vt 0.854433 0.729433
vt 0.645567 0.729433
vt 0.395567 0.020567
vt 0.395567 0.229433
vt 0.604433 0.520567
vt 0.604433 0.729433
vt 0.604433 0.979433
vt 0.395567 0.979433
vt 0.354433 0.729433
vt 0.145567 0.729433
vt 0.645567 0.520567
vt 0.854433 0.520567
vt 0.854433 0.729433
vt 0.645567 0.729433
vn 0.0000 -0.7674 -0.6411
vn 0.0000 -0.6411 0.7674
vn 0.6411 0.7674 0.0000
vn -0.6411 -0.7674 0.0000
vn -0.7674 0.0000 0.6411
vn 0.0000 0.7674 -0.6411
vn -1.0000 0.0000 0.0000
vn 0.0000 0.0000 -1.0000
vn 1.0000 0.0000 0.0000
vn 0.0000 0.0000 1.0000
vn 0.0000 -1.0000 0.0000
vn 0.0000 1.0000 0.0000
vn 0.0000 0.7674 0.6411
vn 0.0000 0.6411 0.7674
vn -0.6411 0.0000 0.7674
vn 0.6411 -0.7674 0.0000
vn 0.7674 -0.6411 0.0000
vn -0.7674 0.0000 -0.6411
vn 0.0000 -0.7674 0.6411
vn -0.7674 0.6411 0.0000
vn 0.6411 0.0000 -0.7674
vn -0.7674 -0.6411 0.0000
vn 0.7674 0.0000 0.6411
vn 0.7674 0.6411 0.0000
vn 0.0000 -0.6411 -0.7674
vn 0.0000 0.6411 -0.7674
vn -0.6411 0.0000 -0.7674
vn 0.7674 0.0000 -0.6411
vn -0.6411 0.7674 0.0000
vn 0.6411 0.0000 0.7674
usemtl None
s off
f 14/1/1 15/2/1 40/3/1 37/4/1
f 25/5/2 26/6/2 49/7/2 50/8/2
f 20/9/3 17/10/3 42/11/3 43/12/3
f 10/13/4 11/14/4 36/15/4 34/16/4
f 21/17/5 22/18/5 45/19/5 46/20/5
f 16/21/6 13/22/6 38/23/6 39/24/6
f 1/25/7 2/26/7 10/13/7 9/27/7
f 2/26/7 4/28/7 11/14/7 10/13/7
f 4/28/7 3/29/7 12/30/7 11/14/7
f 3/29/7 1/25/7 9/27/7 12/30/7
f 3/29/8 4/28/8 14/1/8 13/22/8
f 4/28/8 8/31/8 15/2/8 14/1/8
f 8/31/8 7/32/8 16/21/8 15/2/8
f 7/32/8 3/29/8 13/22/8 16/21/8
f 7/32/9 8/31/9 18/33/9 17/10/9
f 8/31/9 6/34/9 19/35/9 18/33/9
f 6/34/9 5/36/9 20/9/9 19/35/9
f 5/36/9 7/32/9 17/10/9 20/9/9
f 5/36/10 6/34/10 22/18/10 21/17/10
f 6/34/10 2/37/10 23/38/10 22/18/10
f 2/37/10 1/39/10 24/40/10 23/38/10
f 1/39/10 5/36/10 21/17/10 24/40/10
f 3/41/11 7/32/11 26/6/11 25/5/11
f 7/32/11 5/36/11 27/42/11 26/6/11
f 5/36/11 1/43/11 28/44/11 27/42/11
f 1/43/11 3/41/11 25/5/11 28/44/11
f 8/31/12 4/45/12 30/46/12 29/47/12
f 4/45/12 2/48/12 31/49/12 30/46/12
f 2/48/12 6/34/12 32/50/12 31/49/12
f 6/34/12 8/31/12 29/47/12 32/50/12
f 33/51/7 34/16/7 36/15/7 35/52/7
f 38/23/8 37/4/8 40/3/8 39/24/8
f 42/11/9 41/53/9 44/54/9 43/12/9
f 46/20/10 45/19/10 48/55/10 47/56/10
f 50/8/11 49/7/11 52/57/11 51/58/11
f 54/59/12 53/60/12 56/61/12 55/62/12
f 24/40/13 21/17/13 46/20/13 47/56/13
f 29/47/14 30/46/14 53/60/14 54/59/14
f 11/14/15 12/30/15 35/52/15 36/15/15
f 18/33/16 19/35/16 44/54/16 41/53/16
f 28/44/17 25/5/17 50/8/17 51/58/17
f 15/2/18 16/21/18 39/24/18 40/3/18
f 22/18/19 23/38/19 48/55/19 45/19/19
f 32/50/20 29/47/20 54/59/20 55/62/20
f 19/35/21 20/9/21 43/12/21 44/54/21
f 26/6/22 27/42/22 52/57/22 49/7/22
f 23/38/23 24/40/23 47/56/23 48/55/23
f 30/46/24 31/49/24 56/61/24 53/60/24
f 27/42/25 28/44/25 51/58/25 52/57/25
f 31/49/26 32/50/26 55/62/26 56/61/26
f 9/27/27 10/13/27 34/16/27 33/51/27
f 13/22/28 14/1/28 37/4/28 38/23/28
f 12/30/29 9/27/29 33/51/29 35/52/29
f 17/10/30 18/33/30 41/53/30 42/11/30
